<svg xmlns="http://www.w3.org/2000/svg" xmlns:xlink="http://www.w3.org/1999/xlink" xmlns:lucid="lucid" width="2066.5" height="1806.04"><g transform="translate(-695 -178.5)" lucid:page-tab-id="0_0"><path d="M1400 1493.88a6 6 0 0 1 6-6h808a6 6 0 0 1 6 6v463.16a6 6 0 0 1-6 6h-808a6 6 0 0 1-6-6zM1400 974.93a6 6 0 0 1 6-6h808a6 6 0 0 1 6 6v474.98a6 6 0 0 1-6 6h-808a6 6 0 0 1-6-6zM1400 452.5a6 6 0 0 1 6-6h808a6 6 0 0 1 6 6v475a6 6 0 0 1-6 6h-808a6 6 0 0 1-6-6z" stroke="#5e5e5e" stroke-width="3" fill="#edf5ff"/><path d="M1020 270c0 38.66-49.25 70-110 70s-110-31.34-110-70 49.25-70 110-70 110 31.34 110 70z" stroke="#5e5e5e" stroke-width="3" fill="#fff"/><use xlink:href="#a" transform="matrix(1,0,0,1,805,205) translate(70.52469135802468 70.59027777777777)"/><path d="M840 616a6 6 0 0 1 6-6h428a6 6 0 0 1 6 6v148a6 6 0 0 1-6 6H846a6 6 0 0 1-6-6z" stroke="#000" stroke-opacity="0" stroke-width="3" fill="#cfe4ff"/><use xlink:href="#b" transform="matrix(1,0,0,1,845,615) translate(8.299696180555657 86.51519097222221)"/><path d="M1440 479.5a6 6 0 0 1 6-6h88a6 6 0 0 1 6 6v68a6 6 0 0 1-6 6h-88a6 6 0 0 1-6-6z" stroke="#5e5e5e" stroke-width="3" fill="#fff"/><use xlink:href="#c" transform="matrix(1,0,0,1,1452.00005,485.49341207048406) translate(2.2592592592592595 31.77777777777778)"/><path d="M1800 479.5a6 6 0 0 1 6-6h88a6 6 0 0 1 6 6v68a6 6 0 0 1-6 6h-88a6 6 0 0 1-6-6z" stroke="#5e5e5e" stroke-width="3" fill="#fff"/><use xlink:href="#d" transform="matrix(1,0,0,1,1812.00005,485.49341207048406) translate(5.314814814814817 31.77777777777778)"/><path d="M1282 690h71.25a6 6 0 0 0 6-6V492.5a6 6 0 0 1 6-6h50.5" stroke="#008a0e" stroke-width="4" fill="none"/><path d="M1282.05 692H1280v-4h2.05z" stroke="#008a0e" stroke-width=".05" fill="#008a0e"/><path d="M1432.03 486.5l-14.27 4.64v-9.27z" stroke="#008a0e" stroke-width="4" fill="#008a0e"/><path d="M820 1104.25a6 6 0 0 1 6-6h428a6 6 0 0 1 6 6v148a6 6 0 0 1-6 6H826a6 6 0 0 1-6-6z" stroke="#000" stroke-opacity="0" stroke-width="3" fill="#cfe4ff"/><use xlink:href="#e" transform="matrix(1,0,0,1,825,1103.253293964758) translate(8.299696180555657 86.51519097222221)"/><path d="M800 1640.5a6 6 0 0 1 6-6h448a6 6 0 0 1 6 6v148a6 6 0 0 1-6 6H806a6 6 0 0 1-6-6z" stroke="#000" stroke-opacity="0" stroke-width="3" fill="#cfe4ff"/><use xlink:href="#f" transform="matrix(1,0,0,1,805,1639.5041783407094) translate(10.031684027777885 86.51519097222221)"/><path d="M1620 479.5a6 6 0 0 1 6-6h88a6 6 0 0 1 6 6v68a6 6 0 0 1-6 6h-88a6 6 0 0 1-6-6z" stroke="#5e5e5e" stroke-width="3" fill="#fff"/><use xlink:href="#g" transform="matrix(1,0,0,1,1632.00005,485.49341207048406) translate(2.8765432098765373 31.77777777777778)"/><path d="M1542.5 513.5h59" stroke="#5e5e5e" stroke-width="2" fill="none"/><path d="M1542.53 514.5h-1.03v-2h1.03z" stroke="#5e5e5e" stroke-width=".05" fill="#5e5e5e"/><path d="M1616.76 513.5l-14.26 4.63v-9.27z" stroke="#5e5e5e" stroke-width="2" fill="#5e5e5e"/><path d="M1722.5 513.5h59" stroke="#5e5e5e" stroke-width="2" fill="none"/><path d="M1722.53 514.5h-1.03v-2h1.03z" stroke="#5e5e5e" stroke-width=".05" fill="#5e5e5e"/><path d="M1796.76 513.5l-14.26 4.63v-9.27z" stroke="#5e5e5e" stroke-width="2" fill="#5e5e5e"/><path d="M2020 496a6 6 0 0 1 6-6h148a6 6 0 0 1 6 6v131.5a6 6 0 0 1-6 6h-148a6 6 0 0 1-6-6z" stroke="#5e5e5e" stroke-width="3" fill="#fff"/><path d="M2016.12 452.5a6 6 0 0 1 6-6h163a6 6 0 0 1 6 6V484a6 6 0 0 1-6 6h-163a6 6 0 0 1-6-6z" stroke="#000" stroke-opacity="0" stroke-width="3" fill="#fff" fill-opacity="0"/><use xlink:href="#h" transform="matrix(1,0,0,1,2021.115357683652,451.50658792951594) translate(62.74691358024691 22.02777777777778)"/><path d="M2026.8 566.84a9.6 9.6 0 0 1 0-10.18l31.13-49.82a10.82 10.82 0 0 1 9.18-5.1h63a10.82 10.82 0 0 1 9.2 5.1l31.13 49.82a9.6 9.6 0 0 1 0 10.18l-31.13 49.82a10.82 10.82 0 0 1-9.2 5.1h-63a10.82 10.82 0 0 1-9.16-5.1z" stroke="#5e5e5e" stroke-width="3" fill="#1071e5"/><use xlink:href="#i" transform="matrix(1,0,0,1,2028.615332683652,506.746706035242) translate(25.22413580246915 60.80555555555556)"/><path d="M2404 1144c-13.26 0-24-10.74-24-24 0-10.6 6.5-19.55 16.58-22.83C2396 1066 2436 1060 2452 1072c8-18 48-12 48 6 24-6 48 18 32 48 16 24 0 54-32 42-8 15.6-40 15.6-48 0-16 12-48 6-48-24z" stroke="#5e5e5e" stroke-width="3" fill="#fff"/><use xlink:href="#j" transform="matrix(1,0,0,1,2385,1065) translate(36.5246913580247 59.02777777777778)"/><path d="M2740 1268c0 6.63-26.86 12-60 12s-60-5.37-60-12v-96c0-6.63 26.86-12 60-12s60 5.37 60 12z" stroke="#5e5e5e" stroke-width="3" fill="#fff"/><path d="M2740 1172c0 6.63-26.86 12-60 12s-60-5.37-60-12" stroke="#5e5e5e" stroke-width="3" fill="none"/><use xlink:href="#k" transform="matrix(1,0,0,1,2625,1189) translate(8.086419753086425 33.90277777777778)"/><use xlink:href="#l" transform="matrix(1,0,0,1,2625,1189) translate(77.22222222222223 33.90277777777778)"/><use xlink:href="#m" transform="matrix(1,0,0,1,2625,1189) translate(24.75308641975309 60.56944444444445)"/><path d="M1902.5 513.5h51.5a6 6 0 0 1 6 6v36.25a6 6 0 0 0 6 6h34" stroke="#5e5e5e" stroke-width="2" fill="none"/><path d="M1902.53 514.5h-1.03v-2h1.03z" stroke="#5e5e5e" stroke-width=".05" fill="#5e5e5e"/><path d="M2015.26 561.75l-14.26 4.63v-9.27z" stroke="#5e5e5e" stroke-width="2" fill="#5e5e5e"/><path d="M1420 739.5a6 6 0 0 1 6-6h88a6 6 0 0 1 6 6v68a6 6 0 0 1-6 6h-88a6 6 0 0 1-6-6z" stroke="#5e5e5e" stroke-width="3" fill="#fff"/><use xlink:href="#c" transform="matrix(1,0,0,1,1432,745.493412070484) translate(2.2592592592592595 31.77777777777778)"/><path d="M1780 739.5a6 6 0 0 1 6-6h88a6 6 0 0 1 6 6v68a6 6 0 0 1-6 6h-88a6 6 0 0 1-6-6z" stroke="#5e5e5e" stroke-width="3" fill="#fff"/><use xlink:href="#d" transform="matrix(1,0,0,1,1792,745.493412070484) translate(5.314814814814817 31.77777777777778)"/><path d="M1600 739.5a6 6 0 0 1 6-6h88a6 6 0 0 1 6 6v68a6 6 0 0 1-6 6h-88a6 6 0 0 1-6-6z" stroke="#5e5e5e" stroke-width="3" fill="#fff"/><use xlink:href="#g" transform="matrix(1,0,0,1,1612,745.493412070484) translate(2.8765432098765373 31.77777777777778)"/><path d="M2023.62 765.52a6 6 0 0 1 6-6h148a6 6 0 0 1 6 6V907.5a6 6 0 0 1-6 6h-148a6 6 0 0 1-6-6z" stroke="#5e5e5e" stroke-width="3" fill="#fff"/><path d="M1522.5 773.5h57.5" stroke="#5e5e5e" stroke-width="2" fill="none"/><path d="M1522.53 774.5h-1.03v-2h1.03z" stroke="#5e5e5e" stroke-width=".05" fill="#5e5e5e"/><path d="M1595.26 773.5l-14.26 4.63v-9.27z" stroke="#5e5e5e" stroke-width="2" fill="#5e5e5e"/><path d="M1702.5 773.5h59" stroke="#5e5e5e" stroke-width="2" fill="none"/><path d="M1702.53 774.5h-1.03v-2h1.03z" stroke="#5e5e5e" stroke-width=".05" fill="#5e5e5e"/><path d="M1776.76 773.5l-14.26 4.63v-9.27z" stroke="#5e5e5e" stroke-width="2" fill="#5e5e5e"/><path d="M2098.6 625.25v45.26a6 6 0 0 1-6 6H1476a6 6 0 0 0-6 6v26.75" stroke="#1071e5" stroke-width="4" fill="none"/><path d="M2100.6 625.3h-4v-2.05h4z" stroke="#1071e5" stroke-width=".05" fill="#1071e5"/><path d="M1470 725.52l-4.63-14.26h9.27z" stroke="#1071e5" stroke-width="4" fill="#1071e5"/><path d="M1882.5 773.5h63.3a6 6 0 0 1 6 6v51a6 6 0 0 0 6 6h45.8" stroke="#5e5e5e" stroke-width="2" fill="none"/><path d="M1882.53 774.5h-1.03v-2h1.03z" stroke="#5e5e5e" stroke-width=".05" fill="#5e5e5e"/><path d="M2018.88 836.5l-14.27 4.64v-9.27z" stroke="#5e5e5e" stroke-width="2" fill="#5e5e5e"/><path d="M1660 627.75a6 6 0 0 1 6-6h228a6 6 0 0 1 6 6v48a6 6 0 0 1-6 6h-228a6 6 0 0 1-6-6z" fill="none"/><use xlink:href="#n" transform="matrix(1,0,0,1,1660.00005,621.746706035242) translate(-16.888888888888886 35.33333333333333)"/><path d="M2181.78 836.5h91.36a6 6 0 0 1 6 6V1114a6 6 0 0 0 6 6h70.62" stroke="#e81313" stroke-width="4" fill="none"/><path d="M2181.83 838.5h-2.25l.13-.76.08-1.23-.07-1.23-.12-.76h2.25z" stroke="#e81313" stroke-width=".05" fill="#e81313"/><path d="M2372.03 1120l-14.27 4.63v-9.27z" stroke="#e81313" stroke-width="4" fill="#e81313"/><path d="M2538.2 1120.2h33.15a6 6 0 0 1 6 6v88a6 6 0 0 0 6 6h12.4" stroke="#008a0e" stroke-width="4" fill="none"/><path d="M2538.24 1122.2h-2.83l.44-.93 1-3.07h1.4z" stroke="#008a0e" stroke-width=".05" fill="#008a0e"/><path d="M2612.03 1220.2l-14.27 4.63v-9.27z" stroke="#008a0e" stroke-width="4" fill="#008a0e"/><path d="M2033.18 841.6a9.6 9.6 0 0 1 0-10.18l31.14-49.82a10.82 10.82 0 0 1 9.18-5.1h63a10.82 10.82 0 0 1 9.18 5.1l31.14 49.82a9.6 9.6 0 0 1 0 10.18l-31.14 49.82a10.82 10.82 0 0 1-9.18 5.1h-63a10.82 10.82 0 0 1-9.18-5.1z" stroke="#5e5e5e" stroke-width="3" fill="#1071e5"/><use xlink:href="#o" transform="matrix(1,0,0,1,2035.00005,781.506587929516) translate(23.832160493827168 60.80555555555556)"/><path d="M1441.5 1006a6 6 0 0 1 6-6h88a6 6 0 0 1 6 6v68a6 6 0 0 1-6 6h-88a6 6 0 0 1-6-6z" stroke="#5e5e5e" stroke-width="3" fill="#fff"/><use xlink:href="#c" transform="matrix(1,0,0,1,1453.5024086049584,1012) translate(2.2592592592592595 31.77777777777778)"/><path d="M1801.5 1006a6 6 0 0 1 6-6h88a6 6 0 0 1 6 6v68a6 6 0 0 1-6 6h-88a6 6 0 0 1-6-6z" stroke="#5e5e5e" stroke-width="3" fill="#fff"/><use xlink:href="#d" transform="matrix(1,0,0,1,1813.5024086049584,1012) translate(5.314814814814817 31.77777777777778)"/><path d="M1621.5 1006a6 6 0 0 1 6-6h88a6 6 0 0 1 6 6v68a6 6 0 0 1-6 6h-88a6 6 0 0 1-6-6z" stroke="#5e5e5e" stroke-width="3" fill="#fff"/><use xlink:href="#g" transform="matrix(1,0,0,1,1633.5024086049584,1012) translate(2.8765432098765373 31.77777777777778)"/><path d="M1544 1040h59" stroke="#5e5e5e" stroke-width="2" fill="none"/><path d="M1544.03 1041H1543v-2h1.03z" stroke="#5e5e5e" stroke-width=".05" fill="#5e5e5e"/><path d="M1618.27 1040l-14.27 4.63v-9.27z" stroke="#5e5e5e" stroke-width="2" fill="#5e5e5e"/><path d="M1724 1040h59" stroke="#5e5e5e" stroke-width="2" fill="none"/><path d="M1724.03 1041H1723v-2h1.03z" stroke="#5e5e5e" stroke-width=".05" fill="#5e5e5e"/><path d="M1798.27 1040l-14.27 4.63v-9.27z" stroke="#5e5e5e" stroke-width="2" fill="#5e5e5e"/><path d="M2021.5 1022.5a6 6 0 0 1 6-6h148a6 6 0 0 1 6 6V1154a6 6 0 0 1-6 6h-148a6 6 0 0 1-6-6z" stroke="#5e5e5e" stroke-width="3" fill="#fff"/><path d="M2028.3 1093.34a9.6 9.6 0 0 1 0-10.17l31.14-49.83a10.82 10.82 0 0 1 9.18-5.1h63a10.82 10.82 0 0 1 9.18 5.1l31.14 49.83a9.6 9.6 0 0 1 0 10.17l-31.14 49.83a10.82 10.82 0 0 1-9.18 5.08h-63a10.82 10.82 0 0 1-9.18-5.1z" stroke="#5e5e5e" stroke-width="3" fill="#1071e5"/><use xlink:href="#i" transform="matrix(1,0,0,1,2030.1176912886103,1033.2532939647579) translate(25.22413580246915 60.80555555555556)"/><path d="M1904 1040h51.5a6 6 0 0 1 6 6v36.25a6 6 0 0 0 6 6h34" stroke="#5e5e5e" stroke-width="2" fill="none"/><path d="M1904.03 1041H1903v-2h1.03z" stroke="#5e5e5e" stroke-width=".05" fill="#5e5e5e"/><path d="M2016.77 1088.25l-14.27 4.64v-9.28z" stroke="#5e5e5e" stroke-width="2" fill="#5e5e5e"/><path d="M1421.5 1266a6 6 0 0 1 6-6h88a6 6 0 0 1 6 6v68a6 6 0 0 1-6 6h-88a6 6 0 0 1-6-6z" stroke="#5e5e5e" stroke-width="3" fill="#fff"/><use xlink:href="#c" transform="matrix(1,0,0,1,1433.5023586049583,1272) translate(2.2592592592592595 31.77777777777778)"/><path d="M1781.5 1266a6 6 0 0 1 6-6h88a6 6 0 0 1 6 6v68a6 6 0 0 1-6 6h-88a6 6 0 0 1-6-6z" stroke="#5e5e5e" stroke-width="3" fill="#fff"/><use xlink:href="#d" transform="matrix(1,0,0,1,1793.5023586049583,1272) translate(5.314814814814817 31.77777777777778)"/><path d="M1601.5 1266a6 6 0 0 1 6-6h88a6 6 0 0 1 6 6v68a6 6 0 0 1-6 6h-88a6 6 0 0 1-6-6z" stroke="#5e5e5e" stroke-width="3" fill="#fff"/><use xlink:href="#g" transform="matrix(1,0,0,1,1613.5023586049583,1272) translate(2.8765432098765373 31.77777777777778)"/><path d="M2025.12 1292.03a6 6 0 0 1 6-6h148a6 6 0 0 1 6 6V1434a6 6 0 0 1-6 6h-148a6 6 0 0 1-6-6z" stroke="#5e5e5e" stroke-width="3" fill="#fff"/><path d="M1524 1300h57.5" stroke="#5e5e5e" stroke-width="2" fill="none"/><path d="M1524.03 1301H1523v-2h1.03z" stroke="#5e5e5e" stroke-width=".05" fill="#5e5e5e"/><path d="M1596.77 1300l-14.27 4.63v-9.27z" stroke="#5e5e5e" stroke-width="2" fill="#5e5e5e"/><path d="M1704 1300h59" stroke="#5e5e5e" stroke-width="2" fill="none"/><path d="M1704.03 1301H1703v-2h1.03z" stroke="#5e5e5e" stroke-width=".05" fill="#5e5e5e"/><path d="M1778.27 1300l-14.27 4.63v-9.27z" stroke="#5e5e5e" stroke-width="2" fill="#5e5e5e"/><path d="M2100.12 1151.75V1197a6 6 0 0 1-6 6H1477.5a6 6 0 0 0-6 6v26.76" stroke="#1071e5" stroke-width="4" fill="none"/><path d="M2102.12 1151.8h-4v-2.05h4z" stroke="#1071e5" stroke-width=".05" fill="#1071e5"/><path d="M1471.5 1252.03l-4.63-14.27h9.27z" stroke="#1071e5" stroke-width="4" fill="#1071e5"/><path d="M1884 1300h63.3a6 6 0 0 1 6 6v51a6 6 0 0 0 6 6h45.82" stroke="#5e5e5e" stroke-width="2" fill="none"/><path d="M1884.03 1301H1883v-2h1.03z" stroke="#5e5e5e" stroke-width=".05" fill="#5e5e5e"/><path d="M2020.38 1363l-14.26 4.65v-9.27z" stroke="#5e5e5e" stroke-width="2" fill="#5e5e5e"/><path d="M1661.5 1146a6 6 0 0 1 6-6h228a6 6 0 0 1 6 6v48a6 6 0 0 1-6 6h-228a6 6 0 0 1-6-6z" fill="none"/><use xlink:href="#p" transform="matrix(1,0,0,1,1661.5024086049584,1140) translate(-21.296296296296305 35.33333333333333)"/><path d="M2183.28 1363H2294a6 6 0 0 0 6-6v-192.83a6 6 0 0 1 6-6h76.6" stroke="#e81313" stroke-width="4" fill="none"/><path d="M2183.34 1365h-2.25l.12-.75.06-1.24-.07-1.22-.1-.77h2.24z" stroke="#e81313" stroke-width=".05" fill="#e81313"/><path d="M2398.86 1158.17l-14.26 4.64v-9.26z" stroke="#e81313" stroke-width="4" fill="#e81313"/><path d="M2034.68 1368.1a9.6 9.6 0 0 1 0-10.17l31.14-49.83a10.82 10.82 0 0 1 9.18-5.1h63a10.82 10.82 0 0 1 9.18 5.1l31.14 49.83a9.6 9.6 0 0 1 0 10.17l-31.14 49.83a10.82 10.82 0 0 1-9.18 5.08h-63a10.82 10.82 0 0 1-9.18-5.08z" stroke="#5e5e5e" stroke-width="3" fill="#1071e5"/><use xlink:href="#o" transform="matrix(1,0,0,1,2036.5024086049584,1308.013175859032) translate(23.832160493827168 60.80555555555556)"/><path d="M1262 1178.25h82a6 6 0 0 0 6-6V1046a6 6 0 0 1 6-6h61.26" stroke="#008a0e" stroke-width="4" fill="none"/><path d="M1262.05 1180.25H1260v-4h2.05z" stroke="#008a0e" stroke-width=".05" fill="#008a0e"/><path d="M1433.53 1040l-14.27 4.63v-9.27z" stroke="#008a0e" stroke-width="4" fill="#008a0e"/><path d="M1441.5 1506.6a6 6 0 0 1 6-6h88a6 6 0 0 1 6 6v68a6 6 0 0 1-6 6h-88a6 6 0 0 1-6-6z" stroke="#5e5e5e" stroke-width="3" fill="#fff"/><use xlink:href="#c" transform="matrix(1,0,0,1,1453.5024586049585,1512.5978637069652) translate(2.2592592592592595 31.77777777777778)"/><path d="M1801.5 1506.6a6 6 0 0 1 6-6h88a6 6 0 0 1 6 6v68a6 6 0 0 1-6 6h-88a6 6 0 0 1-6-6z" stroke="#5e5e5e" stroke-width="3" fill="#fff"/><use xlink:href="#d" transform="matrix(1,0,0,1,1813.5024586049585,1512.5978637069652) translate(5.314814814814817 31.77777777777778)"/><path d="M1621.5 1506.6a6 6 0 0 1 6-6h88a6 6 0 0 1 6 6v68a6 6 0 0 1-6 6h-88a6 6 0 0 1-6-6z" stroke="#5e5e5e" stroke-width="3" fill="#fff"/><use xlink:href="#g" transform="matrix(1,0,0,1,1633.5024586049585,1512.5978637069652) translate(2.8765432098765373 31.77777777777778)"/><path d="M1544 1540.6h57.5" stroke="#5e5e5e" stroke-width="2" fill="none"/><path d="M1544.03 1541.6H1543v-2h1.03z" stroke="#5e5e5e" stroke-width=".05" fill="#5e5e5e"/><path d="M1616.77 1540.6l-14.27 4.63v-9.27z" stroke="#5e5e5e" stroke-width="2" fill="#5e5e5e"/><path d="M1724 1540.6h57.5" stroke="#5e5e5e" stroke-width="2" fill="none"/><path d="M1724.03 1541.6H1723v-2h1.03z" stroke="#5e5e5e" stroke-width=".05" fill="#5e5e5e"/><path d="M1796.77 1540.6l-14.27 4.63v-9.27z" stroke="#5e5e5e" stroke-width="2" fill="#5e5e5e"/><path d="M2021.5 1530.98a6 6 0 0 1 6-6h148a6 6 0 0 1 6 6v131.5a6 6 0 0 1-6 6h-148a6 6 0 0 1-6-6z" stroke="#5e5e5e" stroke-width="3" fill="#fff"/><path d="M2028.3 1601.82a9.6 9.6 0 0 1 0-10.18l31.14-49.82a10.82 10.82 0 0 1 9.18-5.1h63a10.82 10.82 0 0 1 9.18 5.1l31.14 49.82a9.6 9.6 0 0 1 0 10.18l-31.14 49.82a10.82 10.82 0 0 1-9.18 5.1h-63a10.82 10.82 0 0 1-9.18-5.1z" stroke="#5e5e5e" stroke-width="3" fill="#1071e5"/><use xlink:href="#i" transform="matrix(1,0,0,1,2030.1177412886104,1541.7311205874034) translate(25.22413580246915 60.80555555555556)"/><path d="M1904 1540.6h51.5a6 6 0 0 1 6 6v44.13a6 6 0 0 0 6 6h34" stroke="#5e5e5e" stroke-width="2" fill="none"/><path d="M1904.03 1541.6H1903v-2h1.03z" stroke="#5e5e5e" stroke-width=".05" fill="#5e5e5e"/><path d="M2016.77 1596.73l-14.27 4.64v-9.27z" stroke="#5e5e5e" stroke-width="2" fill="#5e5e5e"/><path d="M1421.5 1774.48a6 6 0 0 1 6-6h88a6 6 0 0 1 6 6v68a6 6 0 0 1-6 6h-88a6 6 0 0 1-6-6z" stroke="#5e5e5e" stroke-width="3" fill="#fff"/><use xlink:href="#c" transform="matrix(1,0,0,1,1433.5024086049584,1780.4778266226456) translate(2.2592592592592595 31.77777777777778)"/><path d="M1781.5 1774.48a6 6 0 0 1 6-6h88a6 6 0 0 1 6 6v68a6 6 0 0 1-6 6h-88a6 6 0 0 1-6-6z" stroke="#5e5e5e" stroke-width="3" fill="#fff"/><use xlink:href="#d" transform="matrix(1,0,0,1,1793.5024086049584,1780.4778266226456) translate(5.314814814814817 31.77777777777778)"/><path d="M1601.5 1774.48a6 6 0 0 1 6-6h88a6 6 0 0 1 6 6v68a6 6 0 0 1-6 6h-88a6 6 0 0 1-6-6z" stroke="#5e5e5e" stroke-width="3" fill="#fff"/><use xlink:href="#g" transform="matrix(1,0,0,1,1613.5024086049584,1780.4778266226456) translate(2.8765432098765373 31.77777777777778)"/><path d="M2025.12 1800.5a6 6 0 0 1 6-6h148a6 6 0 0 1 6 6v141.98a6 6 0 0 1-6 6h-148a6 6 0 0 1-6-6z" stroke="#5e5e5e" stroke-width="3" fill="#fff"/><path d="M1524 1808.48h57.5" stroke="#5e5e5e" stroke-width="2" fill="none"/><path d="M1524.03 1809.48H1523v-2h1.03z" stroke="#5e5e5e" stroke-width=".05" fill="#5e5e5e"/><path d="M1596.77 1808.48l-14.27 4.63v-9.26z" stroke="#5e5e5e" stroke-width="2" fill="#5e5e5e"/><path d="M1704 1808.48h59" stroke="#5e5e5e" stroke-width="2" fill="none"/><path d="M1704.03 1809.48H1703v-2h1.03z" stroke="#5e5e5e" stroke-width=".05" fill="#5e5e5e"/><path d="M1778.27 1808.48l-14.27 4.63v-9.26z" stroke="#5e5e5e" stroke-width="2" fill="#5e5e5e"/><path d="M2100.12 1660.23v45.26a6 6 0 0 1-6 6H1477.5a6 6 0 0 0-6 6v26.74" stroke="#1071e5" stroke-width="4" fill="none"/><path d="M2102.12 1660.28h-4v-2.05h4z" stroke="#1071e5" stroke-width=".05" fill="#1071e5"/><path d="M1471.5 1760.5l-4.63-14.26h9.27z" stroke="#1071e5" stroke-width="4" fill="#1071e5"/><path d="M1884 1808.48h63.3a6 6 0 0 1 6 6v51a6 6 0 0 0 6 6h45.82" stroke="#5e5e5e" stroke-width="2" fill="none"/><path d="M1884.03 1809.48H1883v-2h1.03z" stroke="#5e5e5e" stroke-width=".05" fill="#5e5e5e"/><path d="M2020.38 1871.5l-14.26 4.63v-9.27z" stroke="#5e5e5e" stroke-width="2" fill="#5e5e5e"/><path d="M1661.5 1662.73a6 6 0 0 1 6-6h228a6 6 0 0 1 6 6v48a6 6 0 0 1-6 6h-228a6 6 0 0 1-6-6z" fill="none"/><use xlink:href="#q" transform="matrix(1,0,0,1,1661.5024586049585,1656.7311205874034) translate(-25.7777777777778 35.33333333333333)"/><path d="M2183.28 1871.5h229.84a6 6 0 0 0 6-6v-670.64" stroke="#e81313" stroke-width="4" fill="none"/><path d="M2183.34 1873.5h-2.25l.12-.77.06-1.24-.07-1.25-.1-.76h2.24z" stroke="#e81313" stroke-width=".05" fill="#e81313"/><path d="M2419.12 1178.6l4.64 14.26h-9.27z" stroke="#e81313" stroke-width="4" fill="#e81313"/><path d="M2034.68 1876.58a9.6 9.6 0 0 1 0-10.18l31.14-49.82a10.82 10.82 0 0 1 9.18-5.1h63a10.82 10.82 0 0 1 9.18 5.1l31.14 49.82a9.6 9.6 0 0 1 0 10.18l-31.14 49.82a10.82 10.82 0 0 1-9.18 5.1h-63a10.82 10.82 0 0 1-9.18-5.1z" stroke="#5e5e5e" stroke-width="3" fill="#1071e5"/><use xlink:href="#o" transform="matrix(1,0,0,1,2036.5024586049585,1816.4910024816775) translate(23.832160493827168 60.80555555555556)"/><path d="M1262 1714.5h82a6 6 0 0 0 6-6v-161.9a6 6 0 0 1 6-6h61.27" stroke="#008a0e" stroke-width="4" fill="none"/><path d="M1262.05 1716.5H1260v-4h2.05z" stroke="#008a0e" stroke-width=".05" fill="#008a0e"/><path d="M1433.53 1540.6l-14.26 4.63v-9.27z" stroke="#008a0e" stroke-width="4" fill="#008a0e"/><path d="M910 343.5v32a6 6 0 0 1-6 6h-98a6 6 0 0 0-6 6V684a6 6 0 0 0 6 6h11.26" stroke="#008a0e" stroke-width="4" fill="none"/><path d="M910 341.5l2-.02v2.07h-4v-2.1z" stroke="#008a0e" stroke-width=".05" fill="#008a0e"/><path d="M833.53 690l-14.27 4.63v-9.26z" stroke="#008a0e" stroke-width="4" fill="#008a0e"/><path d="M910 343.5v32a6 6 0 0 1-6 6H746a6 6 0 0 0-6 6v784.75a6 6 0 0 0 6 6h51.26" stroke="#008a0e" stroke-width="4" fill="none"/><path d="M910 341.5l2-.02v2.07h-4v-2.1z" stroke="#008a0e" stroke-width=".05" fill="#008a0e"/><path d="M813.53 1178.25l-14.27 4.64v-9.28z" stroke="#008a0e" stroke-width="4" fill="#008a0e"/><path d="M910 343.5v32a6 6 0 0 1-6 6H706a6 6 0 0 0-6 6v1321a6 6 0 0 0 6 6h71.26" stroke="#008a0e" stroke-width="4" fill="none"/><path d="M910 341.5l2-.02v2.07h-4v-2.1z" stroke="#008a0e" stroke-width=".05" fill="#008a0e"/><path d="M793.53 1714.5l-14.27 4.64v-9.27z" stroke="#008a0e" stroke-width="4" fill="#008a0e"/><path d="M2020 722.03a6 6 0 0 1 6-6h163a6 6 0 0 1 6 6v31.5a6 6 0 0 1-6 6h-163a6 6 0 0 1-6-6z" stroke="#000" stroke-opacity="0" stroke-width="3" fill="#fff" fill-opacity="0"/><use xlink:href="#h" transform="matrix(1,0,0,1,2025.00005,721.0263517180638) translate(62.74691358024691 22.02777777777778)"/><path d="M2017.5 986a6 6 0 0 1 6-6h163a6 6 0 0 1 6 6v31.5a6 6 0 0 1-6 6h-163a6 6 0 0 1-6-6z" stroke="#000" stroke-opacity="0" stroke-width="3" fill="#fff" fill-opacity="0"/><use xlink:href="#h" transform="matrix(1,0,0,1,2022.5000750000002,985) translate(62.74691358024691 22.02777777777778)"/><path d="M2021.5 1249a6 6 0 0 1 6-6h163a6 6 0 0 1 6 6v31.5a6 6 0 0 1-6 6h-163a6 6 0 0 1-6-6z" stroke="#000" stroke-opacity="0" stroke-width="3" fill="#fff" fill-opacity="0"/><use xlink:href="#h" transform="matrix(1,0,0,1,2026.5024586049585,1248.013175859032) translate(62.74691358024691 22.02777777777778)"/><path d="M2014 1493.88a6 6 0 0 1 6-6h163a6 6 0 0 1 6 6v31.5a6 6 0 0 1-6 6h-163a6 6 0 0 1-6-6z" stroke="#000" stroke-opacity="0" stroke-width="3" fill="#fff" fill-opacity="0"/><use xlink:href="#h" transform="matrix(1,0,0,1,2019.0024336049585,1492.8799629156804) translate(62.74691358024691 22.02777777777778)"/><path d="M2016.12 1757a6 6 0 0 1 6-6h163a6 6 0 0 1 6 6v31.5a6 6 0 0 1-6 6h-163a6 6 0 0 1-6-6z" stroke="#000" stroke-opacity="0" stroke-width="3" fill="#fff" fill-opacity="0"/><g><use xlink:href="#h" transform="matrix(1,0,0,1,2021.1153576836518,1756.0107662702253) translate(62.74691358024691 22.02777777777778)"/></g><defs><path fill="#333" d="M212-179c-10-28-35-45-73-45-59 0-87 40-87 99 0 60 29 101 89 101 43 0 62-24 78-52l27 14C228-24 195 4 139 4 59 4 22-46 18-125c-6-104 99-153 187-111 19 9 31 26 39 46" id="r"/><path fill="#333" d="M24 0v-261h32V0H24" id="s"/><path fill="#333" d="M24-231v-30h32v30H24zM24 0v-190h32V0H24" id="t"/><path fill="#333" d="M100-194c63 0 86 42 84 106H49c0 40 14 67 53 68 26 1 43-12 49-29l28 8c-11 28-37 45-77 45C44 4 14-33 15-96c1-61 26-98 85-98zm52 81c6-60-76-77-97-28-3 7-6 17-6 28h103" id="u"/><path fill="#333" d="M117-194c89-4 53 116 60 194h-32v-121c0-31-8-49-39-48C34-167 62-67 57 0H25l-1-190h30c1 10-1 24 2 32 11-22 29-35 61-36" id="v"/><path fill="#333" d="M59-47c-2 24 18 29 38 22v24C64 9 27 4 27-40v-127H5v-23h24l9-43h21v43h35v23H59v120" id="w"/><g id="a"><use transform="matrix(0.06172839506172839,0,0,0.06172839506172839,0,0)" xlink:href="#r"/><use transform="matrix(0.06172839506172839,0,0,0.06172839506172839,15.987654320987653,0)" xlink:href="#s"/><use transform="matrix(0.06172839506172839,0,0,0.06172839506172839,20.864197530864196,0)" xlink:href="#t"/><use transform="matrix(0.06172839506172839,0,0,0.06172839506172839,25.74074074074074,0)" xlink:href="#u"/><use transform="matrix(0.06172839506172839,0,0,0.06172839506172839,38.08641975308642,0)" xlink:href="#v"/><use transform="matrix(0.06172839506172839,0,0,0.06172839506172839,50.432098765432094,0)" xlink:href="#w"/><use transform="matrix(0.06172839506172839,0,0,0.06172839506172839,56.60493827160494,0)" xlink:href="#u"/></g><path d="M137-547c0-322 136-571 430-571 137 0 245 53 322 160h12c-24-215-7-376-12-598h182V0H924l-27-147h-8C814-36 706 20 567 20c-294 0-430-246-430-567zm463 416c241 0 288-157 289-416 0-151-23-259-69-323s-121-97-222-97c-181 0-272 141-272 422 0 276 91 414 274 414" id="x"/><path d="M631-1118c283 0 470 204 465 491v113H322c5 250 120 375 344 375 130 0 253-25 370-76v160C925-5 804 20 672 20c-329 0-539-224-539-561 0-331 182-577 498-577zM326-662h573c0-203-91-305-272-305-183 0-284 102-301 305" id="y"/><path d="M498 0L82-1098h188l240 652c57 154 90 262 100 325h6c67-256 244-708 340-977h189L729 0H498" id="z"/><path d="M532-1413l-268-21v-122h451v1413l352 20V0H188v-123l344-20v-1270" id="A"/><path d="M1112-551c0 331-186 571-502 571-301 0-495-251-495-571 0-330 184-567 501-567 302 0 496 249 496 567zM614-131c207 0 310-140 310-420 0-277-104-416-312-416-206 0-309 139-309 416 0 280 104 420 311 420" id="B"/><path d="M1092-551c0 322-136 571-430 571-138 0-245-53-322-159h-12c24 220 7 402 12 631H158v-1590h147l27 148h8c73-112 181-168 322-168 294 0 430 246 430 567zM629-967c-241 0-288 156-289 416 0 151 24 259 70 323s120 97 221 97c181 0 272-141 272-422 0-276-91-414-274-414" id="C"/><path d="M614-301c101 0 152 55 152 166S715 31 614 31 463-24 463-135s50-166 151-166" id="D"/><path d="M739-1436c0 71-43 115-106 115-71 0-107-38-107-115 0-76 36-114 107-114s106 38 106 114zM541-954l-269-21v-123h451v955l352 20V0H197v-123l344-20v-811" id="E"/><path d="M887 0v-707c0-173-79-260-238-260-205 0-307 133-307 398V0H160v-1098h147l27 148h10c69-112 181-168 336-168 259 0 389 134 389 401V0H887" id="F"/><path d="M188-739c-1-248 156-381 410-379 57 0 107 7 150 20h378v113l-196 27c43 57 65 128 65 213 2 253-212 385-489 346-67 37-100 82-100 133 0 56 54 84 161 84h187c216-2 358 93 358 297 0 251-188 377-565 377-145 0-255-26-331-80S102 283 102 186c0-141 80-231 240-270-64-31-96-83-96-154 0-75 44-139 133-192-109-41-191-166-191-309zm406 221c149 0 223-77 223-230 0-159-75-239-225-239s-225 81-225 242c0 151 76 227 227 227zm346 649c0-146-78-149-248-149H504c-153 0-230 66-230 198 0 116 90 174 271 174 263 0 395-74 395-223" id="G"/><path d="M442-897c93-139 173-221 377-221 79 0 159 15 240 45l-49 166c-82-30-157-45-224-45-221 0-340 134-340 360V0H264v-1098h148l22 201h8" id="H"/><path d="M1026-301c0 225-197 321-448 321-165 0-290-23-375-69v-166c129 57 252 86 370 86 183 0 275-54 275-162 0-38-16-71-49-99s-108-63-226-106c-156-57-253-112-293-160s-61-105-61-171c2-338 524-340 789-217l-60 149c-121-48-228-72-319-72-157 0-236 44-236 133 0 41 17 74 51 98s111 57 232 101c141 51 234 101 280 151s70 111 70 183" id="I"/><path d="M614-1126c85 0 127 46 127 139s-42 139-127 139-127-46-127-139 42-139 127-139zm0 876c85 0 127 46 127 139S699 29 614 29 487-18 487-111s42-139 127-139" id="J"/><path d="M614-1485c230 0 412 129 412 352 0 153-87 273-262 359 206 107 309 238 309 393 0 249-200 401-459 401-271 0-458-134-458-393 0-171 94-302 282-393-157-97-235-220-235-369 0-219 188-350 411-350zm-2 152c-137 0-233 71-231 207 0 60 16 110 49 152s95 84 186 126c155-69 232-161 232-278 1-138-96-207-236-207zm-2 1202c171 0 285-85 285-248 0-60-22-112-63-159-43-49-141-111-244-158-169 81-254 189-254 325 0 160 92 240 276 240" id="K"/><path d="M612 20c-153 0-268-65-347-194S147-489 147-733c0-501 155-752 465-752 155 0 271 64 350 193s119 316 119 559c0 502-156 753-469 753zm0-155c98 0 165-50 216-141 86-153 87-759 0-912-51-91-118-141-216-141-97 0-162 49-212 139-85 152-84 764 0 915 50 90 115 140 212 140" id="L"/><g id="b"><use transform="matrix(0.013454861111111108,0,0,0.013454861111111108,0,0)" xlink:href="#x"/><use transform="matrix(0.013454861111111108,0,0,0.013454861111111108,16.536024305555554,0)" xlink:href="#y"/><use transform="matrix(0.013454861111111108,0,0,0.013454861111111108,33.07204861111111,0)" xlink:href="#z"/><use transform="matrix(0.013454861111111108,0,0,0.013454861111111108,49.60807291666666,0)" xlink:href="#y"/><use transform="matrix(0.013454861111111108,0,0,0.013454861111111108,66.14409722222221,0)" xlink:href="#A"/><use transform="matrix(0.013454861111111108,0,0,0.013454861111111108,82.68012152777777,0)" xlink:href="#B"/><use transform="matrix(0.013454861111111108,0,0,0.013454861111111108,99.21614583333333,0)" xlink:href="#C"/><use transform="matrix(0.013454861111111108,0,0,0.013454861111111108,115.75217013888889,0)" xlink:href="#D"/><use transform="matrix(0.013454861111111108,0,0,0.013454861111111108,132.28819444444443,0)" xlink:href="#E"/><use transform="matrix(0.013454861111111108,0,0,0.013454861111111108,148.82421874999997,0)" xlink:href="#F"/><use transform="matrix(0.013454861111111108,0,0,0.013454861111111108,165.36024305555551,0)" xlink:href="#G"/><use transform="matrix(0.013454861111111108,0,0,0.013454861111111108,181.89626736111106,0)" xlink:href="#H"/><use transform="matrix(0.013454861111111108,0,0,0.013454861111111108,198.4322916666666,0)" xlink:href="#y"/><use transform="matrix(0.013454861111111108,0,0,0.013454861111111108,214.96831597222214,0)" xlink:href="#I"/><use transform="matrix(0.013454861111111108,0,0,0.013454861111111108,231.5043402777777,0)" xlink:href="#I"/><use transform="matrix(0.013454861111111108,0,0,0.013454861111111108,248.04036458333323,0)" xlink:href="#D"/><use transform="matrix(0.013454861111111108,0,0,0.013454861111111108,264.5763888888888,0)" xlink:href="#F"/><use transform="matrix(0.013454861111111108,0,0,0.013454861111111108,281.11241319444434,0)" xlink:href="#E"/><use transform="matrix(0.013454861111111108,0,0,0.013454861111111108,297.6484374999999,0)" xlink:href="#C"/><use transform="matrix(0.013454861111111108,0,0,0.013454861111111108,314.18446180555543,0)" xlink:href="#D"/><use transform="matrix(0.013454861111111108,0,0,0.013454861111111108,330.720486111111,0)" xlink:href="#E"/><use transform="matrix(0.013454861111111108,0,0,0.013454861111111108,347.2565104166665,0)" xlink:href="#B"/><use transform="matrix(0.013454861111111108,0,0,0.013454861111111108,363.79253472222206,0)" xlink:href="#J"/><use transform="matrix(0.013454861111111108,0,0,0.013454861111111108,380.3285590277776,0)" xlink:href="#K"/><use transform="matrix(0.013454861111111108,0,0,0.013454861111111108,396.86458333333314,0)" xlink:href="#L"/><path d="M-1.38 1.4h416.16v1.36H-1.38z"/></g><path fill="#333" d="M177-190C167-65 218 103 67 71c-23-6-38-20-44-43l32-5c15 47 100 32 89-28v-30C133-14 115 1 83 1 29 1 15-40 15-95c0-56 16-97 71-98 29-1 48 16 59 35 1-10 0-23 2-32h30zM94-22c36 0 50-32 50-73 0-42-14-75-50-75-39 0-46 34-46 75s6 73 46 73" id="M"/><path fill="#333" d="M114-163C36-179 61-72 57 0H25l-1-190h30c1 12-1 29 2 39 6-27 23-49 58-41v29" id="N"/><path fill="#333" d="M135-143c-3-34-86-38-87 0 15 53 115 12 119 90S17 21 10-45l28-5c4 36 97 45 98 0-10-56-113-15-118-90-4-57 82-63 122-42 12 7 21 19 24 35" id="O"/><g id="c"><use transform="matrix(0.06172839506172839,0,0,0.06172839506172839,0,0)" xlink:href="#t"/><use transform="matrix(0.06172839506172839,0,0,0.06172839506172839,4.876543209876543,0)" xlink:href="#v"/><use transform="matrix(0.06172839506172839,0,0,0.06172839506172839,17.22222222222222,0)" xlink:href="#M"/><use transform="matrix(0.06172839506172839,0,0,0.06172839506172839,29.5679012345679,0)" xlink:href="#N"/><use transform="matrix(0.06172839506172839,0,0,0.06172839506172839,36.913580246913575,0)" xlink:href="#u"/><use transform="matrix(0.06172839506172839,0,0,0.06172839506172839,49.25925925925925,0)" xlink:href="#O"/><use transform="matrix(0.06172839506172839,0,0,0.06172839506172839,60.37037037037037,0)" xlink:href="#O"/></g><path fill="#333" d="M85-194c31 0 48 13 60 33l-1-100h32l1 261h-30c-2-10 0-23-3-31C134-8 116 4 85 4 32 4 16-35 15-94c0-66 23-100 70-100zm9 24c-40 0-46 34-46 75 0 40 6 74 45 74 42 0 51-32 51-76 0-42-9-74-50-73" id="P"/><path fill="#333" d="M115-194c55 1 70 41 70 98S169 2 115 4C84 4 66-9 55-30l1 105H24l-1-265h31l2 30c10-21 28-34 59-34zm-8 174c40 0 45-34 45-75s-6-73-45-74c-42 0-51 32-51 76 0 43 10 73 51 73" id="Q"/><path fill="#333" d="M100-194c62-1 85 37 85 99 1 63-27 99-86 99S16-35 15-95c0-66 28-99 85-99zM99-20c44 1 53-31 53-75 0-43-8-75-51-75s-53 32-53 75 10 74 51 75" id="R"/><path fill="#333" d="M179-190L93 31C79 59 56 82 12 73V49c39 6 53-20 64-50L1-190h34L92-34l54-156h33" id="S"/><g id="d"><use transform="matrix(0.06172839506172839,0,0,0.06172839506172839,0,0)" xlink:href="#P"/><use transform="matrix(0.06172839506172839,0,0,0.06172839506172839,12.345679012345679,0)" xlink:href="#u"/><use transform="matrix(0.06172839506172839,0,0,0.06172839506172839,24.691358024691358,0)" xlink:href="#Q"/><use transform="matrix(0.06172839506172839,0,0,0.06172839506172839,37.03703703703704,0)" xlink:href="#s"/><use transform="matrix(0.06172839506172839,0,0,0.06172839506172839,41.91358024691358,0)" xlink:href="#R"/><use transform="matrix(0.06172839506172839,0,0,0.06172839506172839,54.25925925925926,0)" xlink:href="#S"/></g><path d="M887 0v-707c0-173-79-260-238-260-205 0-307 133-307 398V0H160v-1556h182c-2 202 6 416-8 606h10c69-112 181-168 336-168 259 0 389 134 389 401V0H887" id="T"/><path d="M977 0v-707c0-97-9-165-27-203s-47-57-88-57c-58 0-100 28-126 83s-40 148-40 278V0H535v-707c0-173-42-260-125-260-56 0-96 26-120 79s-36 160-36 319V0H92v-1098h127l27 148h10c45-112 112-168 201-168 109 0 180 61 213 182h6c51-121 124-182 219-182 85 0 147 30 186 92s58 165 58 309V0H977" id="U"/><g id="e"><use transform="matrix(0.013454861111111108,0,0,0.013454861111111108,0,0)" xlink:href="#T"/><use transform="matrix(0.013454861111111108,0,0,0.013454861111111108,16.536024305555554,0)" xlink:href="#B"/><use transform="matrix(0.013454861111111108,0,0,0.013454861111111108,33.07204861111111,0)" xlink:href="#U"/><use transform="matrix(0.013454861111111108,0,0,0.013454861111111108,49.60807291666666,0)" xlink:href="#B"/><use transform="matrix(0.013454861111111108,0,0,0.013454861111111108,66.14409722222221,0)" xlink:href="#A"/><use transform="matrix(0.013454861111111108,0,0,0.013454861111111108,82.68012152777777,0)" xlink:href="#B"/><use transform="matrix(0.013454861111111108,0,0,0.013454861111111108,99.21614583333333,0)" xlink:href="#G"/><use transform="matrix(0.013454861111111108,0,0,0.013454861111111108,115.75217013888889,0)" xlink:href="#D"/><use transform="matrix(0.013454861111111108,0,0,0.013454861111111108,132.28819444444443,0)" xlink:href="#E"/><use transform="matrix(0.013454861111111108,0,0,0.013454861111111108,148.82421874999997,0)" xlink:href="#F"/><use transform="matrix(0.013454861111111108,0,0,0.013454861111111108,165.36024305555551,0)" xlink:href="#G"/><use transform="matrix(0.013454861111111108,0,0,0.013454861111111108,181.89626736111106,0)" xlink:href="#H"/><use transform="matrix(0.013454861111111108,0,0,0.013454861111111108,198.4322916666666,0)" xlink:href="#y"/><use transform="matrix(0.013454861111111108,0,0,0.013454861111111108,214.96831597222214,0)" xlink:href="#I"/><use transform="matrix(0.013454861111111108,0,0,0.013454861111111108,231.5043402777777,0)" xlink:href="#I"/><use transform="matrix(0.013454861111111108,0,0,0.013454861111111108,248.04036458333323,0)" xlink:href="#D"/><use transform="matrix(0.013454861111111108,0,0,0.013454861111111108,264.5763888888888,0)" xlink:href="#F"/><use transform="matrix(0.013454861111111108,0,0,0.013454861111111108,281.11241319444434,0)" xlink:href="#E"/><use transform="matrix(0.013454861111111108,0,0,0.013454861111111108,297.6484374999999,0)" xlink:href="#C"/><use transform="matrix(0.013454861111111108,0,0,0.013454861111111108,314.18446180555543,0)" xlink:href="#D"/><use transform="matrix(0.013454861111111108,0,0,0.013454861111111108,330.720486111111,0)" xlink:href="#E"/><use transform="matrix(0.013454861111111108,0,0,0.013454861111111108,347.2565104166665,0)" xlink:href="#B"/><use transform="matrix(0.013454861111111108,0,0,0.013454861111111108,363.79253472222206,0)" xlink:href="#J"/><use transform="matrix(0.013454861111111108,0,0,0.013454861111111108,380.3285590277776,0)" xlink:href="#K"/><use transform="matrix(0.013454861111111108,0,0,0.013454861111111108,396.86458333333314,0)" xlink:href="#L"/><path d="M-1.38 1.4h416.16v1.36H-1.38z"/></g><path d="M578-131c239 0 309-137 309-397v-570h182V0H922l-27-147h-10C815-36 704 20 551 20c-261 0-391-134-391-401v-717h182v707c0 173 79 260 236 260" id="V"/><path d="M172-543c0-365 197-575 553-575 119 0 231 20 336 59l-62 158c-100-38-189-57-268-57-247 0-371 138-371 413 0 271 120 406 361 406 105 0 212-21 321-62v160C953 0 843 20 713 20c-347 1-541-210-541-563" id="W"/><path d="M596-1118c288 2 430 92 430 366V0H895l-37-152h-8C752-34 680 17 483 20 272 23 135-98 135-307c0-221 170-337 510-348l203-7c15-197-55-305-244-305-98 0-207 27-328 82l-63-137c131-64 258-96 383-96zm-72 991c194 0 325-116 322-311v-99c-251 15-522-6-522 232 0 119 67 178 200 178" id="X"/><g id="f"><use transform="matrix(0.013454861111111108,0,0,0.013454861111111108,0,0)" xlink:href="#C"/><use transform="matrix(0.013454861111111108,0,0,0.013454861111111108,16.536024305555554,0)" xlink:href="#H"/><use transform="matrix(0.013454861111111108,0,0,0.013454861111111108,33.07204861111111,0)" xlink:href="#B"/><use transform="matrix(0.013454861111111108,0,0,0.013454861111111108,49.60807291666666,0)" xlink:href="#x"/><use transform="matrix(0.013454861111111108,0,0,0.013454861111111108,66.14409722222221,0)" xlink:href="#V"/><use transform="matrix(0.013454861111111108,0,0,0.013454861111111108,82.68012152777777,0)" xlink:href="#W"/><use transform="matrix(0.013454861111111108,0,0,0.013454861111111108,99.21614583333333,0)" xlink:href="#X"/><use transform="matrix(0.013454861111111108,0,0,0.013454861111111108,115.75217013888889,0)" xlink:href="#B"/><use transform="matrix(0.013454861111111108,0,0,0.013454861111111108,132.28819444444443,0)" xlink:href="#D"/><use transform="matrix(0.013454861111111108,0,0,0.013454861111111108,148.82421874999997,0)" xlink:href="#E"/><use transform="matrix(0.013454861111111108,0,0,0.013454861111111108,165.36024305555551,0)" xlink:href="#F"/><use transform="matrix(0.013454861111111108,0,0,0.013454861111111108,181.89626736111106,0)" xlink:href="#G"/><use transform="matrix(0.013454861111111108,0,0,0.013454861111111108,198.4322916666666,0)" xlink:href="#H"/><use transform="matrix(0.013454861111111108,0,0,0.013454861111111108,214.96831597222214,0)" xlink:href="#y"/><use transform="matrix(0.013454861111111108,0,0,0.013454861111111108,231.5043402777777,0)" xlink:href="#I"/><use transform="matrix(0.013454861111111108,0,0,0.013454861111111108,248.04036458333323,0)" xlink:href="#I"/><use transform="matrix(0.013454861111111108,0,0,0.013454861111111108,264.5763888888888,0)" xlink:href="#D"/><use transform="matrix(0.013454861111111108,0,0,0.013454861111111108,281.11241319444434,0)" xlink:href="#F"/><use transform="matrix(0.013454861111111108,0,0,0.013454861111111108,297.6484374999999,0)" xlink:href="#E"/><use transform="matrix(0.013454861111111108,0,0,0.013454861111111108,314.18446180555543,0)" xlink:href="#C"/><use transform="matrix(0.013454861111111108,0,0,0.013454861111111108,330.720486111111,0)" xlink:href="#D"/><use transform="matrix(0.013454861111111108,0,0,0.013454861111111108,347.2565104166665,0)" xlink:href="#E"/><use transform="matrix(0.013454861111111108,0,0,0.013454861111111108,363.79253472222206,0)" xlink:href="#B"/><use transform="matrix(0.013454861111111108,0,0,0.013454861111111108,380.3285590277776,0)" xlink:href="#J"/><use transform="matrix(0.013454861111111108,0,0,0.013454861111111108,396.86458333333314,0)" xlink:href="#K"/><use transform="matrix(0.013454861111111108,0,0,0.013454861111111108,413.4006076388887,0)" xlink:href="#L"/><path d="M-1.38 1.4h432.7v1.36H-1.4z"/></g><path fill="#333" d="M108 0H70L1-190h34L89-25l56-165h34" id="Y"/><path fill="#333" d="M96-169c-40 0-48 33-48 73s9 75 48 75c24 0 41-14 43-38l32 2c-6 37-31 61-74 61-59 0-76-41-82-99-10-93 101-131 147-64 4 7 5 14 7 22l-32 3c-4-21-16-35-41-35" id="Z"/><g id="g"><use transform="matrix(0.06172839506172839,0,0,0.06172839506172839,0,0)" xlink:href="#O"/><use transform="matrix(0.06172839506172839,0,0,0.06172839506172839,11.11111111111111,0)" xlink:href="#u"/><use transform="matrix(0.06172839506172839,0,0,0.06172839506172839,23.45679012345679,0)" xlink:href="#N"/><use transform="matrix(0.06172839506172839,0,0,0.06172839506172839,30.80246913580247,0)" xlink:href="#Y"/><use transform="matrix(0.06172839506172839,0,0,0.06172839506172839,41.91358024691358,0)" xlink:href="#t"/><use transform="matrix(0.06172839506172839,0,0,0.06172839506172839,46.79012345679013,0)" xlink:href="#Z"/><use transform="matrix(0.06172839506172839,0,0,0.06172839506172839,57.90123456790124,0)" xlink:href="#u"/></g><path fill="#333" d="M30-248c87 1 191-15 191 75 0 78-77 80-158 76V0H30v-248zm33 125c57 0 124 11 124-50 0-59-68-47-124-48v98" id="aa"/><g id="h"><use transform="matrix(0.06172839506172839,0,0,0.06172839506172839,0,0)" xlink:href="#aa"/><use transform="matrix(0.06172839506172839,0,0,0.06172839506172839,14.814814814814813,0)" xlink:href="#R"/><use transform="matrix(0.06172839506172839,0,0,0.06172839506172839,27.160493827160494,0)" xlink:href="#P"/></g><path fill="#fff" d="M101-234c-31-9-42 10-38 44h38v23H63V0H32v-167H5v-23h27c-7-52 17-82 69-68v24" id="ab"/><path fill="#fff" d="M114-163C36-179 61-72 57 0H25l-1-190h30c1 12-1 29 2 39 6-27 23-49 58-41v29" id="ac"/><path fill="#fff" d="M100-194c62-1 85 37 85 99 1 63-27 99-86 99S16-35 15-95c0-66 28-99 85-99zM99-20c44 1 53-31 53-75 0-43-8-75-51-75s-53 32-53 75 10 74 51 75" id="ad"/><path fill="#fff" d="M117-194c89-4 53 116 60 194h-32v-121c0-31-8-49-39-48C34-167 62-67 57 0H25l-1-190h30c1 10-1 24 2 32 11-22 29-35 61-36" id="ae"/><path fill="#fff" d="M59-47c-2 24 18 29 38 22v24C64 9 27 4 27-40v-127H5v-23h24l9-43h21v43h35v23H59v120" id="af"/><path fill="#fff" d="M100-194c63 0 86 42 84 106H49c0 40 14 67 53 68 26 1 43-12 49-29l28 8c-11 28-37 45-77 45C44 4 14-33 15-96c1-61 26-98 85-98zm52 81c6-60-76-77-97-28-3 7-6 17-6 28h103" id="ag"/><path fill="#fff" d="M85-194c31 0 48 13 60 33l-1-100h32l1 261h-30c-2-10 0-23-3-31C134-8 116 4 85 4 32 4 16-35 15-94c0-66 23-100 70-100zm9 24c-40 0-46 34-46 75 0 40 6 74 45 74 42 0 51-32 51-76 0-42-9-74-50-73" id="ah"/><g id="i"><use transform="matrix(0.06790123456790122,0,0,0.06790123456790122,0,0)" xlink:href="#ab"/><use transform="matrix(0.06790123456790122,0,0,0.06790123456790122,6.790123456790122,0)" xlink:href="#ac"/><use transform="matrix(0.06790123456790122,0,0,0.06790123456790122,14.870370370370367,0)" xlink:href="#ad"/><use transform="matrix(0.06790123456790122,0,0,0.06790123456790122,28.45061728395061,0)" xlink:href="#ae"/><use transform="matrix(0.06790123456790122,0,0,0.06790123456790122,42.03086419753085,0)" xlink:href="#af"/><use transform="matrix(0.06790123456790122,0,0,0.06790123456790122,48.82098765432097,0)" xlink:href="#ag"/><use transform="matrix(0.06790123456790122,0,0,0.06790123456790122,62.40123456790121,0)" xlink:href="#ae"/><use transform="matrix(0.06790123456790122,0,0,0.06790123456790122,75.98148148148145,0)" xlink:href="#ah"/></g><g id="j"><use transform="matrix(0.06172839506172839,0,0,0.06172839506172839,0,0)" xlink:href="#t"/><use transform="matrix(0.06172839506172839,0,0,0.06172839506172839,4.876543209876543,0)" xlink:href="#v"/><use transform="matrix(0.06172839506172839,0,0,0.06172839506172839,17.22222222222222,0)" xlink:href="#w"/><use transform="matrix(0.06172839506172839,0,0,0.06172839506172839,23.39506172839506,0)" xlink:href="#u"/><use transform="matrix(0.06172839506172839,0,0,0.06172839506172839,35.74074074074074,0)" xlink:href="#N"/><use transform="matrix(0.06172839506172839,0,0,0.06172839506172839,43.08641975308642,0)" xlink:href="#v"/><use transform="matrix(0.06172839506172839,0,0,0.06172839506172839,55.432098765432094,0)" xlink:href="#u"/><use transform="matrix(0.06172839506172839,0,0,0.06172839506172839,67.77777777777777,0)" xlink:href="#w"/></g><path fill="#333" d="M160-131c35 5 61 23 61 61C221 17 115-2 30 0v-248c76 3 177-17 177 60 0 33-19 50-47 57zm-97-11c50-1 110 9 110-42 0-47-63-36-110-37v79zm0 115c55-2 124 14 124-45 0-56-70-42-124-44v89" id="ai"/><path fill="#333" d="M141-36C126-15 110 5 73 4 37 3 15-17 15-53c-1-64 63-63 125-63 3-35-9-54-41-54-24 1-41 7-42 31l-33-3c5-37 33-52 76-52 45 0 72 20 72 64v82c-1 20 7 32 28 27v20c-31 9-61-2-59-35zM48-53c0 20 12 33 32 33 41-3 63-29 60-74-43 2-92-5-92 41" id="aj"/><g id="k"><use transform="matrix(0.06172839506172839,0,0,0.06172839506172839,0,0)" xlink:href="#ai"/><use transform="matrix(0.06172839506172839,0,0,0.06172839506172839,14.814814814814813,0)" xlink:href="#aj"/><use transform="matrix(0.06172839506172839,0,0,0.06172839506172839,27.160493827160494,0)" xlink:href="#v"/><use transform="matrix(0.06172839506172839,0,0,0.06172839506172839,39.50617283950617,0)" xlink:href="#Z"/><use transform="matrix(0.06172839506172839,0,0,0.06172839506172839,50.61728395061728,0)" xlink:href="#R"/></g><g id="l"><use transform="matrix(0.06172839506172839,0,0,0.06172839506172839,0,0)" xlink:href="#P"/><use transform="matrix(0.06172839506172839,0,0,0.06172839506172839,12.345679012345679,0)" xlink:href="#u"/></g><g id="m"><use transform="matrix(0.06172839506172839,0,0,0.06172839506172839,0,0)" xlink:href="#P"/><use transform="matrix(0.06172839506172839,0,0,0.06172839506172839,12.345679012345679,0)" xlink:href="#aj"/><use transform="matrix(0.06172839506172839,0,0,0.06172839506172839,24.691358024691358,0)" xlink:href="#P"/><use transform="matrix(0.06172839506172839,0,0,0.06172839506172839,37.03703703703704,0)" xlink:href="#R"/><use transform="matrix(0.06172839506172839,0,0,0.06172839506172839,49.382716049382715,0)" xlink:href="#O"/></g><path fill="#1071e5" d="M141-36C126-15 110 5 73 4 37 3 15-17 15-53c-1-64 63-63 125-63 3-35-9-54-41-54-24 1-41 7-42 31l-33-3c5-37 33-52 76-52 45 0 72 20 72 64v82c-1 20 7 32 28 27v20c-31 9-61-2-59-35zM48-53c0 20 12 33 32 33 41-3 63-29 60-74-43 2-92-5-92 41" id="ak"/><path fill="#1071e5" d="M115-194c55 1 70 41 70 98S169 2 115 4C84 4 66-9 55-30l1 105H24l-1-265h31l2 30c10-21 28-34 59-34zm-8 174c40 0 45-34 45-75s-6-73-45-74c-42 0-51 32-51 76 0 43 10 73 51 73" id="al"/><path fill="#1071e5" d="M24-231v-30h32v30H24zM24 0v-190h32V0H24" id="am"/><path fill="#1071e5" d="M33 0v-38h34V0H33" id="an"/><path fill="#1071e5" d="M85-194c31 0 48 13 60 33l-1-100h32l1 261h-30c-2-10 0-23-3-31C134-8 116 4 85 4 32 4 16-35 15-94c0-66 23-100 70-100zm9 24c-40 0-46 34-46 75 0 40 6 74 45 74 42 0 51-32 51-76 0-42-9-74-50-73" id="ao"/><path fill="#1071e5" d="M100-194c63 0 86 42 84 106H49c0 40 14 67 53 68 26 1 43-12 49-29l28 8c-11 28-37 45-77 45C44 4 14-33 15-96c1-61 26-98 85-98zm52 81c6-60-76-77-97-28-3 7-6 17-6 28h103" id="ap"/><path fill="#1071e5" d="M108 0H70L1-190h34L89-25l56-165h34" id="aq"/><path fill="#1071e5" d="M24 0v-261h32V0H24" id="ar"/><path fill="#1071e5" d="M100-194c62-1 85 37 85 99 1 63-27 99-86 99S16-35 15-95c0-66 28-99 85-99zM99-20c44 1 53-31 53-75 0-43-8-75-51-75s-53 32-53 75 10 74 51 75" id="as"/><path fill="#1071e5" d="M117-194c89-4 53 116 60 194h-32v-121c0-31-8-49-39-48C34-167 62-67 57 0H25l-1-190h30c1 10-1 24 2 32 11-22 29-35 61-36" id="at"/><path fill="#1071e5" d="M33-154v-36h34v36H33zM33 0v-36h34V0H33" id="au"/><path fill="#1071e5" d="M126-127c33 6 58 20 58 59 0 88-139 92-164 29-3-8-5-16-6-25l32-3c6 27 21 44 54 44 32 0 52-15 52-46 0-38-36-46-79-43v-28c39 1 72-4 72-42 0-27-17-43-46-43-28 0-47 15-49 41l-32-3c6-42 35-63 81-64 48-1 79 21 79 65 0 36-21 52-52 59" id="av"/><path fill="#1071e5" d="M101-251c68 0 85 55 85 127S166 4 100 4C33 4 14-52 14-124c0-73 17-127 87-127zm-1 229c47 0 54-49 54-102s-4-102-53-102c-51 0-55 48-55 102 0 53 5 102 54 102" id="aw"/><g id="n"><use transform="matrix(0.07407407407407407,0,0,0.07407407407407407,0,0)" xlink:href="#ak"/><use transform="matrix(0.07407407407407407,0,0,0.07407407407407407,14.814814814814813,0)" xlink:href="#al"/><use transform="matrix(0.07407407407407407,0,0,0.07407407407407407,29.629629629629626,0)" xlink:href="#am"/><use transform="matrix(0.07407407407407407,0,0,0.07407407407407407,35.48148148148148,0)" xlink:href="#an"/><use transform="matrix(0.07407407407407407,0,0,0.07407407407407407,42.888888888888886,0)" xlink:href="#ao"/><use transform="matrix(0.07407407407407407,0,0,0.07407407407407407,57.703703703703695,0)" xlink:href="#ap"/><use transform="matrix(0.07407407407407407,0,0,0.07407407407407407,72.5185185185185,0)" xlink:href="#aq"/><use transform="matrix(0.07407407407407407,0,0,0.07407407407407407,85.85185185185183,0)" xlink:href="#ap"/><use transform="matrix(0.07407407407407407,0,0,0.07407407407407407,100.66666666666664,0)" xlink:href="#ar"/><use transform="matrix(0.07407407407407407,0,0,0.07407407407407407,106.51851851851849,0)" xlink:href="#as"/><use transform="matrix(0.07407407407407407,0,0,0.07407407407407407,121.33333333333329,0)" xlink:href="#al"/><use transform="matrix(0.07407407407407407,0,0,0.07407407407407407,136.14814814814812,0)" xlink:href="#an"/><use transform="matrix(0.07407407407407407,0,0,0.07407407407407407,143.55555555555554,0)" xlink:href="#at"/><use transform="matrix(0.07407407407407407,0,0,0.07407407407407407,158.37037037037035,0)" xlink:href="#am"/><use transform="matrix(0.07407407407407407,0,0,0.07407407407407407,164.2222222222222,0)" xlink:href="#al"/><use transform="matrix(0.07407407407407407,0,0,0.07407407407407407,179.03703703703698,0)" xlink:href="#an"/><use transform="matrix(0.07407407407407407,0,0,0.07407407407407407,186.44444444444443,0)" xlink:href="#am"/><use transform="matrix(0.07407407407407407,0,0,0.07407407407407407,192.29629629629628,0)" xlink:href="#as"/><use transform="matrix(0.07407407407407407,0,0,0.07407407407407407,207.1111111111111,0)" xlink:href="#au"/><use transform="matrix(0.07407407407407407,0,0,0.07407407407407407,214.5185185185185,0)" xlink:href="#av"/><use transform="matrix(0.07407407407407407,0,0,0.07407407407407407,229.33333333333331,0)" xlink:href="#aw"/><use transform="matrix(0.07407407407407407,0,0,0.07407407407407407,244.14814814814812,0)" xlink:href="#aw"/><use transform="matrix(0.07407407407407407,0,0,0.07407407407407407,258.96296296296293,0)" xlink:href="#aw"/><path fill="#1071e5" d="M-1.33 1.85H275.1V3.8H-1.32z"/></g><path fill="#fff" d="M115-194c53 0 69 39 70 98 0 66-23 100-70 100C84 3 66-7 56-30L54 0H23l1-261h32v101c10-23 28-34 59-34zm-8 174c40 0 45-34 45-75 0-40-5-75-45-74-42 0-51 32-51 76 0 43 10 73 51 73" id="ax"/><path fill="#fff" d="M141-36C126-15 110 5 73 4 37 3 15-17 15-53c-1-64 63-63 125-63 3-35-9-54-41-54-24 1-41 7-42 31l-33-3c5-37 33-52 76-52 45 0 72 20 72 64v82c-1 20 7 32 28 27v20c-31 9-61-2-59-35zM48-53c0 20 12 33 32 33 41-3 63-29 60-74-43 2-92-5-92 41" id="ay"/><path fill="#fff" d="M96-169c-40 0-48 33-48 73s9 75 48 75c24 0 41-14 43-38l32 2c-6 37-31 61-74 61-59 0-76-41-82-99-10-93 101-131 147-64 4 7 5 14 7 22l-32 3c-4-21-16-35-41-35" id="az"/><path fill="#fff" d="M143 0L79-87 56-68V0H24v-261h32v163l83-92h37l-77 82L181 0h-38" id="aA"/><g id="o"><use transform="matrix(0.06790123456790122,0,0,0.06790123456790122,0,0)" xlink:href="#ax"/><use transform="matrix(0.06790123456790122,0,0,0.06790123456790122,13.580246913580243,0)" xlink:href="#ay"/><use transform="matrix(0.06790123456790122,0,0,0.06790123456790122,27.160493827160487,0)" xlink:href="#az"/><use transform="matrix(0.06790123456790122,0,0,0.06790123456790122,39.38271604938271,0)" xlink:href="#aA"/><use transform="matrix(0.06790123456790122,0,0,0.06790123456790122,51.60493827160493,0)" xlink:href="#ag"/><use transform="matrix(0.06790123456790122,0,0,0.06790123456790122,65.18518518518518,0)" xlink:href="#ae"/><use transform="matrix(0.06790123456790122,0,0,0.06790123456790122,78.76543209876542,0)" xlink:href="#ah"/></g><path fill="#1071e5" d="M106-169C34-169 62-67 57 0H25v-261h32l-1 103c12-21 28-36 61-36 89 0 53 116 60 194h-32v-121c2-32-8-49-39-48" id="aB"/><path fill="#1071e5" d="M210-169c-67 3-38 105-44 169h-31v-121c0-29-5-50-35-48C34-165 62-65 56 0H25l-1-190h30c1 10-1 24 2 32 10-44 99-50 107 0 11-21 27-35 58-36 85-2 47 119 55 194h-31v-121c0-29-5-49-35-48" id="aC"/><path fill="#1071e5" d="M177-190C167-65 218 103 67 71c-23-6-38-20-44-43l32-5c15 47 100 32 89-28v-30C133-14 115 1 83 1 29 1 15-40 15-95c0-56 16-97 71-98 29-1 48 16 59 35 1-10 0-23 2-32h30zM94-22c36 0 50-32 50-73 0-42-14-75-50-75-39 0-46 34-46 75s6 73 46 73" id="aD"/><g id="p"><use transform="matrix(0.07407407407407407,0,0,0.07407407407407407,0,0)" xlink:href="#ak"/><use transform="matrix(0.07407407407407407,0,0,0.07407407407407407,14.814814814814813,0)" xlink:href="#al"/><use transform="matrix(0.07407407407407407,0,0,0.07407407407407407,29.629629629629626,0)" xlink:href="#am"/><use transform="matrix(0.07407407407407407,0,0,0.07407407407407407,35.48148148148148,0)" xlink:href="#an"/><use transform="matrix(0.07407407407407407,0,0,0.07407407407407407,42.888888888888886,0)" xlink:href="#aB"/><use transform="matrix(0.07407407407407407,0,0,0.07407407407407407,57.703703703703695,0)" xlink:href="#as"/><use transform="matrix(0.07407407407407407,0,0,0.07407407407407407,72.5185185185185,0)" xlink:href="#aC"/><use transform="matrix(0.07407407407407407,0,0,0.07407407407407407,94.66666666666666,0)" xlink:href="#as"/><use transform="matrix(0.07407407407407407,0,0,0.07407407407407407,109.48148148148145,0)" xlink:href="#ar"/><use transform="matrix(0.07407407407407407,0,0,0.07407407407407407,115.33333333333331,0)" xlink:href="#as"/><use transform="matrix(0.07407407407407407,0,0,0.07407407407407407,130.14814814814812,0)" xlink:href="#aD"/><use transform="matrix(0.07407407407407407,0,0,0.07407407407407407,144.96296296296293,0)" xlink:href="#an"/><use transform="matrix(0.07407407407407407,0,0,0.07407407407407407,152.37037037037035,0)" xlink:href="#at"/><use transform="matrix(0.07407407407407407,0,0,0.07407407407407407,167.18518518518516,0)" xlink:href="#am"/><use transform="matrix(0.07407407407407407,0,0,0.07407407407407407,173.03703703703698,0)" xlink:href="#al"/><use transform="matrix(0.07407407407407407,0,0,0.07407407407407407,187.85185185185182,0)" xlink:href="#an"/><use transform="matrix(0.07407407407407407,0,0,0.07407407407407407,195.25925925925924,0)" xlink:href="#am"/><use transform="matrix(0.07407407407407407,0,0,0.07407407407407407,201.1111111111111,0)" xlink:href="#as"/><use transform="matrix(0.07407407407407407,0,0,0.07407407407407407,215.92592592592587,0)" xlink:href="#au"/><use transform="matrix(0.07407407407407407,0,0,0.07407407407407407,223.33333333333331,0)" xlink:href="#av"/><use transform="matrix(0.07407407407407407,0,0,0.07407407407407407,238.14814814814812,0)" xlink:href="#aw"/><use transform="matrix(0.07407407407407407,0,0,0.07407407407407407,252.96296296296296,0)" xlink:href="#aw"/><use transform="matrix(0.07407407407407407,0,0,0.07407407407407407,267.77777777777777,0)" xlink:href="#aw"/><path fill="#1071e5" d="M-1.33 1.85h285.26V3.8H-1.33z"/></g><path fill="#1071e5" d="M114-163C36-179 61-72 57 0H25l-1-190h30c1 12-1 29 2 39 6-27 23-49 58-41v29" id="aE"/><path fill="#1071e5" d="M84 4C-5 8 30-112 23-190h32v120c0 31 7 50 39 49 72-2 45-101 50-169h31l1 190h-30c-1-10 1-25-2-33-11 22-28 36-60 37" id="aF"/><path fill="#1071e5" d="M96-169c-40 0-48 33-48 73s9 75 48 75c24 0 41-14 43-38l32 2c-6 37-31 61-74 61-59 0-76-41-82-99-10-93 101-131 147-64 4 7 5 14 7 22l-32 3c-4-21-16-35-41-35" id="aG"/><g id="q"><use transform="matrix(0.07407407407407407,0,0,0.07407407407407407,0,0)" xlink:href="#ak"/><use transform="matrix(0.07407407407407407,0,0,0.07407407407407407,14.814814814814813,0)" xlink:href="#al"/><use transform="matrix(0.07407407407407407,0,0,0.07407407407407407,29.629629629629626,0)" xlink:href="#am"/><use transform="matrix(0.07407407407407407,0,0,0.07407407407407407,35.48148148148148,0)" xlink:href="#an"/><use transform="matrix(0.07407407407407407,0,0,0.07407407407407407,42.888888888888886,0)" xlink:href="#al"/><use transform="matrix(0.07407407407407407,0,0,0.07407407407407407,57.703703703703695,0)" xlink:href="#aE"/><use transform="matrix(0.07407407407407407,0,0,0.07407407407407407,66.5185185185185,0)" xlink:href="#as"/><use transform="matrix(0.07407407407407407,0,0,0.07407407407407407,81.33333333333331,0)" xlink:href="#ao"/><use transform="matrix(0.07407407407407407,0,0,0.07407407407407407,96.14814814814812,0)" xlink:href="#aF"/><use transform="matrix(0.07407407407407407,0,0,0.07407407407407407,110.96296296296293,0)" xlink:href="#aG"/><use transform="matrix(0.07407407407407407,0,0,0.07407407407407407,124.29629629629626,0)" xlink:href="#ak"/><use transform="matrix(0.07407407407407407,0,0,0.07407407407407407,139.1111111111111,0)" xlink:href="#as"/><use transform="matrix(0.07407407407407407,0,0,0.07407407407407407,153.9259259259259,0)" xlink:href="#an"/><use transform="matrix(0.07407407407407407,0,0,0.07407407407407407,161.33333333333331,0)" xlink:href="#at"/><use transform="matrix(0.07407407407407407,0,0,0.07407407407407407,176.14814814814815,0)" xlink:href="#am"/><use transform="matrix(0.07407407407407407,0,0,0.07407407407407407,181.99999999999994,0)" xlink:href="#al"/><use transform="matrix(0.07407407407407407,0,0,0.07407407407407407,196.81481481481478,0)" xlink:href="#an"/><use transform="matrix(0.07407407407407407,0,0,0.07407407407407407,204.2222222222222,0)" xlink:href="#am"/><use transform="matrix(0.07407407407407407,0,0,0.07407407407407407,210.07407407407408,0)" xlink:href="#as"/><use transform="matrix(0.07407407407407407,0,0,0.07407407407407407,224.88888888888883,0)" xlink:href="#au"/><use transform="matrix(0.07407407407407407,0,0,0.07407407407407407,232.29629629629628,0)" xlink:href="#av"/><use transform="matrix(0.07407407407407407,0,0,0.07407407407407407,247.1111111111111,0)" xlink:href="#aw"/><use transform="matrix(0.07407407407407407,0,0,0.07407407407407407,261.9259259259259,0)" xlink:href="#aw"/><use transform="matrix(0.07407407407407407,0,0,0.07407407407407407,276.74074074074076,0)" xlink:href="#aw"/><path fill="#1071e5" d="M-1.33 1.85H292.9V3.8H-1.34z"/></g></defs></g></svg>